Coordinates
version=1
nRows=11
nColumns=46
inDegrees=yes

Units are S.I. units (second, meters, Newtons, ...)
Angles are in degrees.

endheader
time	pelvis_tilt	pelvis_list	pelvis_rotation	pelvis_tx	pelvis_ty	pelvis_tz	bb_angle	bb_tx	bb_ty	bb_tz	hip_flexion_r	hip_adduction_r	hip_rotation_r	knee_angle_r	knee_angle_r_beta	ankle_angle_r	subtalar_angle_r	mtp_angle_r	crank_angle_r	hip_flexion_l	hip_adduction_l	hip_rotation_l	knee_angle_l	knee_angle_l_beta	ankle_angle_l	subtalar_angle_l	mtp_angle_l	crank_angle_l	lumbar_extension	lumbar_bending	lumbar_rotation	arm_flex_r	arm_add_r	arm_rot_r	elbow_flex_r	pro_sup_r	wrist_flex_r	wrist_dev_r	arm_flex_l	arm_add_l	arm_rot_l	elbow_flex_l	pro_sup_l	wrist_flex_l	wrist_dev_l
      5.00500000	    -16.90665583	      6.37920797	      3.48642395	      0.15687470	      1.16533836	     -0.23038669	      0.00000000	      0.50000000	      0.00000000	      0.25000000	     41.62789316	    -11.83525022	     -8.08535059	     40.60325243	      0.70866044	      4.89284975	      3.24838159	      0.00000000	      0.00000000	     96.84343472	     -3.17166511	     -1.09848655	    105.60125268	      1.84308955	    -31.95943518	     -6.98670268	      0.00000000	      0.00000000	    -64.57102229	     -7.65251320	     -7.36177310	     89.75655023	    -17.65461263	     30.27647855	     52.04193213	     23.58848119	      0.00000000	      0.00000000	     89.74599262	     -3.48198526	     24.03939887	     58.59421642	     29.37081614	      0.00000000	      0.00000000
      5.01000000	    -17.09530262	      6.19037232	      3.82328630	      0.15646938	      1.16657999	     -0.23089064	      0.00000000	      0.50000000	      0.00000000	      0.25000000	     42.31003495	    -12.10797258	     -8.38062038	     42.42382701	      0.74043546	      3.91121534	      2.84147803	      0.00000000	      0.00000000	     96.88233302	     -2.67497259	     -1.04396866	    104.59191722	      1.82547333	    -30.83699028	     -7.15091535	      0.00000000	      0.00000000	    -64.63461909	     -7.25419994	     -7.31309020	     89.76637068	    -17.75357326	     30.14007196	     52.17626746	     23.62443800	      0.00000000	      0.00000000	     89.75173714	     -3.55020804	     24.01926341	     58.89914879	     29.36179383	      0.00000000	      0.00000000
      5.01500000	    -17.63538697	      6.19242472	      4.15658063	      0.15592131	      1.16709953	     -0.23159599	      0.00000000	      0.50000000	      0.00000000	      0.25000000	     43.60915612	    -12.53255429	     -8.31413889	     44.52184485	      0.77705278	      2.79521056	      2.07278046	      0.00000000	      0.00000000	     97.06373153	     -2.14011537	     -1.11786398	    103.39539247	      1.80459003	    -29.21592499	     -6.50899444	      0.00000000	      0.00000000	    -64.49527423	     -6.98833868	     -7.60806251	     89.76177178	    -17.92457173	     29.79191132	     53.01942205	     23.85622908	      0.00000000	      0.00000000	     89.75257234	     -4.02100950	     24.16736889	     59.90894065	     29.18643723	      0.00000000	      0.00000000
      5.02000000	    -17.92442474	      6.05943503	      4.44899107	      0.15530679	      1.16809352	     -0.23193874	      0.00000000	      0.50000000	      0.00000000	      0.25000000	     44.68043465	    -12.76390821	     -8.26156560	     46.61195195	      0.81353203	      1.45848420	      1.21453426	      0.00000000	      0.00000000	     96.85849564	     -1.72878829	     -1.07059934	    102.11949556	      1.78232143	    -27.51952557	     -6.19462324	      0.00000000	      0.00000000	    -64.52030253	     -6.67025947	     -7.69160937	     89.76675178	    -18.06801736	     29.58975034	     53.47942937	     23.96719877	      0.00000000	      0.00000000	     89.75746665	     -4.22930846	     24.14428516	     60.42395602	     29.10921595	      0.00000000	      0.00000000
      5.02500000	    -18.20067268	      5.80983422	      4.66955068	      0.15468735	      1.16884981	     -0.23224279	      0.00000000	      0.50000000	      0.00000000	      0.25000000	     45.84871289	    -12.81855957	     -8.11378523	     48.79942452	      0.85171063	     -0.08621100	      0.08703982	      0.00000000	      0.00000000	     96.54178791	     -1.38966030	     -0.83497061	    100.83477300	      1.75989879	    -25.41057288	     -5.51068784	      0.00000000	      0.00000000	    -64.51305199	     -6.25980085	     -7.58421934	     89.76896546	    -18.22357720	     29.37357111	     54.16226737	     24.12345887	      0.00000000	      0.00000000	     89.76528665	     -4.81089529	     24.43409935	     61.14820507	     29.01691720	      0.00000000	      0.00000000
      5.03000000	    -18.35603228	      5.55032152	      4.86648570	      0.15424789	      1.16968476	     -0.23268522	      0.00000000	      0.50000000	      0.00000000	      0.25000000	     46.95600176	    -12.85266775	     -7.95904030	     51.06032883	      0.89117086	     -1.67326284	     -1.08957838	      0.00000000	      0.00000000	     95.95229610	     -0.96214758	     -0.49796615	     99.49072244	      1.73644068	    -22.94131630	     -4.65379585	      0.00000000	      0.00000000	    -64.65195543	     -5.86393426	     -7.51319132	     89.77220511	    -18.39536606	     29.15322347	     54.86280052	     24.27916202	      0.00000000	      0.00000000	     89.76752078	     -5.27216731	     24.46163916	     61.99573240	     28.87465738	      0.00000000	      0.00000000
      5.03500000	    -18.59412573	      5.28842032	      5.18104985	      0.15353012	      1.17022185	     -0.23345708	      0.00000000	      0.50000000	      0.00000000	      0.25000000	     48.23170871	    -13.00549226	     -7.84017003	     53.39867800	      0.93198275	     -3.31628901	     -1.99115831	      0.00000000	      0.00000000	     95.33848463	     -0.52911907	     -0.26612985	     98.00000961	      1.71042283	    -20.59898239	     -4.15315248	      0.00000000	      0.00000000	    -64.67749575	     -5.40439318	     -7.40766800	     89.77728142	    -18.62427124	     28.93724292	     55.28049519	     24.35748269	      0.00000000	      0.00000000	     89.77276190	     -5.39708355	     24.40085019	     62.40493700	     28.83663722	      0.00000000	      0.00000000
      5.04000000	    -18.65095733	      5.11811076	      5.42885588	      0.15308255	      1.17079239	     -0.23414195	      0.00000000	      0.50000000	      0.00000000	      0.25000000	     49.37275301	    -12.97439303	     -7.18277732	     55.75133899	      0.97304443	     -5.01603242	     -3.34164267	      0.00000000	      0.00000000	     94.38699118	     -0.16968416	     -0.05968888	     96.46022849	      1.68354858	    -18.00673109	     -3.12580263	      0.00000000	      0.00000000	    -64.85531010	     -4.99819532	     -7.36103784	     89.77833269	    -18.84851220	     28.72645209	     55.97868918	     24.48878236	      0.00000000	      0.00000000	     89.77424124	     -5.63085724	     24.36440235	     62.91767577	     28.79129678	      0.00000000	      0.00000000
      5.04500000	    -18.75157350	      4.51114012	      5.41858444	      0.15252490	      1.17111666	     -0.23378815	      0.00000000	      0.50000000	      0.00000000	      0.25000000	     50.54271766	    -12.44640438	     -7.00276612	     57.95036596	      1.01142469	     -6.99865133	     -4.74373312	      0.00000000	      0.00000000	     93.50100852	     -0.27100244	      0.60081572	     94.93662250	      1.65695664	    -15.34138554	     -1.79612716	      0.00000000	      0.00000000	    -64.97164103	     -4.59187004	     -6.78911844	     89.78107177	    -19.18964418	     28.51362189	     56.96065731	     24.69228583	      0.00000000	      0.00000000	     89.77485552	     -5.99084002	     24.35795095	     63.78051965	     28.67278047	      0.00000000	      0.00000000
      5.05000000	    -18.82500495	      4.14246841	      5.34423059	      0.15178067	      1.17128176	     -0.23374145	      0.00000000	      0.50000000	      0.00000000	      0.25000000	     51.82618240	    -12.12094875	     -6.61195978	     60.24868201	      1.05153787	     -8.79705376	     -5.70644629	      0.00000000	      0.00000000	     92.41374725	     -0.32862359	      1.01603405	     93.27596639	      1.62797273	    -12.61566145	     -0.77993855	      0.00000000	      0.00000000	    -65.11319528	     -4.39225678	     -6.37857113	     89.78198674	    -19.56539129	     28.34154845	     57.74539800	     24.83717440	      0.00000000	      0.00000000	     89.77314418	     -5.91571977	     24.05161583	     64.33983688	     28.44932907	      0.00000000	      0.00000000
      5.05500000	    -18.90412697	      3.90300911	      5.28772261	      0.15120747	      1.17125055	     -0.23373271	      0.00000000	      0.50000000	      0.00000000	      0.25000000	     53.15771282	    -11.90201161	     -6.13618674	     62.58023832	      1.09223121	    -10.49415189	     -6.48214795	      0.00000000	      0.00000000	     91.19047605	     -0.38456335	      1.19587347	     91.50010235	      1.59697805	     -9.98879884	      0.09092269	      0.00000000	      0.00000000	    -65.16325500	     -4.22787001	     -6.02961058	     89.78324775	    -19.82110433	     28.21289010	     58.21151228	     24.91216486	      0.00000000	      0.00000000	     89.77413470	     -5.95979375	     24.01501917	     64.61972157	     28.35451604	      0.00000000	      0.00000000
